<svg width="13" height="15" viewBox="0 0 13 15" fill="none" xmlns="http://www.w3.org/2000/svg">
<path fill-rule="evenodd" clip-rule="evenodd" d="M1.30197 14.1743C0.582682 14.1743 0 13.5912 0 12.8723V9.14127L1.36564 5.94175C1.60661 5.37761 2.16068 5.01172 2.77398 5.01172H9.98659C10.5999 5.01172 11.154 5.37761 11.3949 5.94175L12.7606 9.14127V12.8723C12.7606 13.5916 12.1775 14.1743 11.4586 14.1743H1.30197Z" fill="#BCBFC2"/>
<path d="M9.64578 6.09766H3.11539C2.80249 6.09766 2.54883 6.35132 2.54883 6.66422V11.8729C2.54883 12.1858 2.80249 12.4395 3.11539 12.4395H9.64578C9.95869 12.4395 10.2123 12.1858 10.2123 11.8729V6.66422C10.2123 6.35132 9.95869 6.09766 9.64578 6.09766Z" fill="#D9DDE0"/>
<path d="M10.5868 7.48047H2.17538C1.84444 7.48047 1.57617 7.74874 1.57617 8.07967V11.6777C1.57617 12.0086 1.84444 12.2769 2.17538 12.2769H10.5868C10.9177 12.2769 11.186 12.0086 11.186 11.6777V8.07967C11.186 7.74874 10.9177 7.48047 10.5868 7.48047Z" fill="white"/>
<path fill-rule="evenodd" clip-rule="evenodd" d="M12.7602 9.14062H0V12.8716C0 13.5909 0.583085 14.1736 1.30197 14.1736H11.4582C12.1775 14.1736 12.7602 13.5905 12.7602 12.8716V9.14062Z" fill="#CDD3D9"/>
<path d="M9.11898 2.01158L6.64761 4.48294C6.49973 4.63083 6.26037 4.63083 6.11288 4.48294L3.64152 2.01158C3.51862 1.88868 3.60566 1.67833 3.77934 1.67833H4.98782C5.1079 1.67833 5.20501 1.58122 5.20501 1.46114V0.184556C5.20501 0.082607 5.28762 0 5.38957 0H7.37093C7.47288 0 7.55549 0.082607 7.55549 0.184556V1.46114C7.55549 1.58122 7.6526 1.67833 7.77268 1.67833H8.98116C9.15484 1.67833 9.24188 1.88868 9.11898 2.01158Z" fill="#CDD3D9"/>
</svg>
