<svg xmlns="http://www.w3.org/2000/svg" width="12" height="12" viewBox="0 0 12 12" fill="none">
  <g clip-path="url(#clip0_2131_24933)">
    <path d="M11.0404 9.21615C11.0404 9.45926 10.9438 9.69242 10.7719 9.86433C10.6 10.0362 10.3668 10.1328 10.1237 10.1328H1.8737C1.63058 10.1328 1.39743 10.0362 1.22552 9.86433C1.05361 9.69242 0.957031 9.45926 0.957031 9.21615V4.17448C0.957031 3.93136 1.05361 3.69821 1.22552 3.5263C1.39743 3.35439 1.63058 3.25781 1.8737 3.25781H3.70703L4.6237 1.88281H7.3737L8.29037 3.25781H10.1237C10.3668 3.25781 10.6 3.35439 10.7719 3.5263C10.9438 3.69821 11.0404 3.93136 11.0404 4.17448V9.21615Z" fill="#494F5B"/>
    <path d="M6.00098 5.08301C6.76026 5.08301 7.3758 5.69877 7.37598 6.45801C7.37598 7.2174 6.76037 7.83301 6.00098 7.83301C5.24173 7.83283 4.62598 7.21729 4.62598 6.45801C4.62615 5.69887 5.24184 5.08318 6.00098 5.08301Z" fill="#F2F3F6" stroke="#F2F3F6" stroke-width="0.916667" stroke-linecap="round" stroke-linejoin="round"/>
  </g>
  <defs>
    <clipPath id="clip0_2131_24933">
      <rect width="11" height="11" fill="white" transform="translate(0.5 0.5)"/>
    </clipPath>
  </defs>
</svg>