<svg xmlns="http://www.w3.org/2000/svg" width="20" height="20" viewBox="0 0 20 20" fill="none">
  <path d="M3.30109 13.9023C4.20508 18.0713 8.13442 18.9023 10.3011 18.9023C17.8002 18.9023 17.802 11.402 17.302 9.40203C16.802 7.40203 14.802 4.90203 14.302 7.40203C13.802 9.90203 14.802 8.40203 12.802 6.40203C10.802 4.40203 11.302 4.90188 11.302 1.90188C11.302 -1.09812 5.20045 4.07131 5.80202 7.40189C6.03934 8.71583 5.30109 9.90234 4.80109 9.40234C4.30109 8.90234 2.23623 8.99153 3.30109 13.9023Z" fill="#FF576D"/>
  <path d="M10.3066 17.8928C13.1066 17.8928 13.8066 15.3926 13.8066 13.8928C13.8066 13.8928 13.8066 12.8926 12.8066 13.3926C11.465 14.0634 13.8066 9.39276 10.8066 7.89276C7.80664 6.39276 11.3066 9.89276 8.80664 11.8928C6.30664 13.8928 6.80664 17.8928 10.3066 17.8928Z" fill="#FFB5BF"/>
</svg>