<svg xmlns="http://www.w3.org/2000/svg" width="36" height="36" viewBox="0 0 36 36" fill="none">
  <g clip-path="url(#clip0_3262_27905)">
    <path d="M25.6499 3.1499H10.3499C6.37345 3.1499 3.1499 6.37345 3.1499 10.3499V25.6499C3.1499 29.6264 6.37345 32.8499 10.3499 32.8499H25.6499C29.6264 32.8499 32.8499 29.6264 32.8499 25.6499V10.3499C32.8499 6.37345 29.6264 3.1499 25.6499 3.1499Z" fill="#B7AEFF"/>
    <path d="M18.2701 9.27271C22.1797 9.27271 23.9941 11.4759 23.9941 14.3496C23.9941 16.5528 22.7629 18.0432 21.0556 19.6848L17.7724 22.8168H24.0589V25.7112H12.9772V23.5728L18.3565 18.2367C20.0629 16.5519 20.4301 15.7311 20.4301 14.5863C20.4301 12.9879 19.5229 12.1878 18.2485 12.1878C16.9525 12.1878 16.1101 13.1814 16.1101 14.5863L12.502 14.5647C12.5893 11.5839 14.9869 9.27271 18.2701 9.27271Z" fill="white"/>
  </g>
  <defs>
    <clipPath id="clip0_3262_27905">
      <rect width="36" height="36" fill="white"/>
    </clipPath>
  </defs>
</svg>