<svg xmlns="http://www.w3.org/2000/svg" width="40" height="40" viewBox="0 0 40 40" fill="none">
  <path d="M4.4735 34.2875L5.47463 31.6757L5.68459 31.128C5.91883 30.5169 6.70478 30.3496 7.16757 30.8124L9.18697 32.8318C9.64975 33.2946 9.4825 34.0805 8.87138 34.3148L8.32363 34.5247C7.6151 34.7262 6.59277 35.1118 5.68986 35.4719C4.94612 35.7686 4.18691 35.0351 4.4735 34.2875Z" fill="#29323C"/>
  <rect width="10.4757" height="28.0172" transform="matrix(0.707107 0.707107 0.707107 -0.707107 8.30737 24.2859)" fill="#FAC749"/>
  <path d="M30.0362 2.55579C31.448 1.144 33.737 1.144 35.1488 2.55579L37.4437 4.85064C38.8554 6.26243 38.8555 8.55141 37.4437 9.9632L35.5264 11.8804L28.119 4.473L30.0362 2.55579Z" fill="#4F469C"/>
  <path d="M15.7159 31.6918L8.30849 24.2844L5.47513 31.6762L8.32413 34.5252L15.7159 31.6918Z" fill="#FFD79A"/>
</svg>