<svg xmlns="http://www.w3.org/2000/svg" width="24" height="24" viewBox="0 0 24 24" fill="none">
  <mask id="path-1-inside-1_5938_21665" fill="white">
    <path d="M17.6291 18.9335C17.8631 19.1792 18.2536 19.1899 18.4836 18.9405C19.8275 17.4833 20.6856 15.6376 20.9289 13.6599C21.1973 11.4785 20.7009 9.27149 19.5245 7.41498C18.348 5.55847 16.5643 4.16731 14.4771 3.47854C12.39 2.78977 10.1285 2.846 8.07819 3.63765C6.02784 4.42931 4.31541 5.9074 3.23269 7.82009C2.14997 9.73277 1.76394 11.9617 2.14038 14.1271C2.51682 16.2925 3.63243 18.2604 5.29714 19.6954C6.80634 20.9965 8.68219 21.7866 10.6567 21.9625C10.9946 21.9926 11.2765 21.7223 11.2847 21.3831C11.293 21.044 11.0242 20.7648 10.6866 20.7314C8.9965 20.5644 7.39313 19.8803 6.09927 18.765C4.64983 17.5155 3.67849 15.8021 3.35073 13.9167C3.02297 12.0313 3.35908 10.0906 4.30179 8.42527C5.2445 6.75993 6.73548 5.47298 8.52068 4.7837C10.3059 4.09442 12.2749 4.04546 14.0921 4.64516C15.9094 5.24486 17.4625 6.45612 18.4868 8.07255C19.5111 9.68899 19.9433 11.6106 19.7096 13.5099C19.501 15.2054 18.7734 16.7895 17.6341 18.049C17.4065 18.3005 17.3951 18.6879 17.6291 18.9335Z"/>
  </mask>
  <path d="M17.6291 18.9335C17.8631 19.1792 18.2536 19.1899 18.4836 18.9405C19.8275 17.4833 20.6856 15.6376 20.9289 13.6599C21.1973 11.4785 20.7009 9.27149 19.5245 7.41498C18.348 5.55847 16.5643 4.16731 14.4771 3.47854C12.39 2.78977 10.1285 2.846 8.07819 3.63765C6.02784 4.42931 4.31541 5.9074 3.23269 7.82009C2.14997 9.73277 1.76394 11.9617 2.14038 14.1271C2.51682 16.2925 3.63243 18.2604 5.29714 19.6954C6.80634 20.9965 8.68219 21.7866 10.6567 21.9625C10.9946 21.9926 11.2765 21.7223 11.2847 21.3831C11.293 21.044 11.0242 20.7648 10.6866 20.7314C8.9965 20.5644 7.39313 19.8803 6.09927 18.765C4.64983 17.5155 3.67849 15.8021 3.35073 13.9167C3.02297 12.0313 3.35908 10.0906 4.30179 8.42527C5.2445 6.75993 6.73548 5.47298 8.52068 4.7837C10.3059 4.09442 12.2749 4.04546 14.0921 4.64516C15.9094 5.24486 17.4625 6.45612 18.4868 8.07255C19.5111 9.68899 19.9433 11.6106 19.7096 13.5099C19.501 15.2054 18.7734 16.7895 17.6341 18.049C17.4065 18.3005 17.3951 18.6879 17.6291 18.9335Z" stroke="#494F5B" stroke-width="2.8" mask="url(#path-1-inside-1_5938_21665)"/>
  <path d="M21.5681 19.1832L18.3372 19.305C17.7985 19.3253 17.3407 18.915 17.3021 18.3773L17.0298 14.5837" stroke="#494F5B" stroke-linecap="round"/>
</svg>