<svg xmlns="http://www.w3.org/2000/svg" width="36" height="36" viewBox="0 0 36 36" fill="none">
  <path d="M11.7046 7.59394C12.5946 5.93848 14.4028 5.75316 15.5217 6.03177C16.6406 6.31037 23.8066 9.25445 26.3981 15.1544C28.7164 20.4323 28.2077 27.7917 22.3736 29.9576C16.7455 32.0471 12.085 27.5434 9.84811 21.5769C7.57914 15.5247 10.8146 9.2494 11.7046 7.59394Z" fill="#9C5118"/>
  <path d="M13.5793 8.52953C14.3551 7.0865 15.9312 6.92496 16.9066 7.16782C17.8819 7.41067 24.1283 9.97696 26.3873 15.1198C28.4082 19.7205 27.9647 26.1355 22.8793 28.0235C17.9733 29.8448 13.9109 25.9191 11.961 20.7182C9.98323 15.4426 12.8035 9.97256 13.5793 8.52953Z" fill="#B86B25"/>
  <path d="M13.5793 8.52953C14.3551 7.0865 15.9312 6.92496 16.9066 7.16782C17.8819 7.41067 24.1283 9.97696 26.3873 15.1198C28.4082 19.7205 27.9647 26.1355 22.8793 28.0235C17.9733 29.8448 13.9109 25.9191 11.961 20.7182C9.98323 15.4426 12.8035 9.97256 13.5793 8.52953Z" fill="#B86B25"/>
  <path d="M17.9378 10.5328C17.8617 10.5254 17.7826 10.538 17.7152 10.5766C17.6478 10.6153 17.5978 10.6759 17.5755 10.7475C17.5532 10.8191 17.56 10.8974 17.5936 10.9674C17.6272 11.0375 17.6851 11.0927 17.7519 11.1298C17.8884 11.2087 18.0261 11.2955 18.1597 11.3854C19.36 12.2108 20.3816 13.2051 21.3053 14.2581C22.2263 15.3175 23.0433 16.4716 23.7708 17.7763C23.8516 17.9215 23.9306 18.0662 24.0098 18.217C24.0452 18.2847 24.099 18.3439 24.1683 18.3792C24.2375 18.4145 24.3156 18.4231 24.3877 18.4026C24.4599 18.382 24.5217 18.3335 24.5619 18.267C24.6022 18.2005 24.6166 18.1218 24.6111 18.0456C24.5964 17.8675 24.5776 17.6939 24.5525 17.5182C24.3319 15.9397 23.6369 14.3921 22.5632 13.1636C21.4913 11.9365 20.0709 11.0042 18.4777 10.626C18.3002 10.5856 18.1185 10.5527 17.9378 10.5328Z" fill="#F19346"/>
</svg>