<svg xmlns="http://www.w3.org/2000/svg" width="36" height="36" viewBox="0 0 36 36" fill="none">
  <path d="M14.4243 27.0165C15.6621 22.8573 16.1854 19.9517 15.4187 15.5974L17.6158 15.5974L17.6334 15.6661C18.8569 20.4249 19.2885 22.1038 19.0107 27.8751C18.9512 29.1129 17.9203 30.0781 16.6811 30.0781C15.0931 30.0781 13.9714 28.5386 14.4243 27.0165Z" fill="#1F8F00"/>
  <path d="M16.4922 13.81C16.6363 12.1932 17.4191 9.50498 21.3197 7.48803C25.1227 5.52153 32.0974 7.88666 32.404 7.8198C32.409 7.80416 32.4123 7.8005 32.4143 7.80974C32.4154 7.81477 32.4119 7.81809 32.404 7.8198C32.3007 8.14457 31.4807 13.6354 27.0542 16.07C22.4145 18.6218 16.5216 16.898 16.5216 16.898C16.5216 16.898 16.3481 15.4269 16.4922 13.81Z" fill="#28B700"/>
  <path d="M17.0547 14.2825C17.0547 12.851 16.5775 10.4283 13.3091 8.35127C10.1224 6.32616 3.81073 7.85768 3.54657 7.77495C3.54342 7.76082 3.5408 7.75734 3.53834 7.7653C3.537 7.76964 3.53979 7.77282 3.54657 7.77495C3.61194 8.06835 3.90234 12.9557 7.60001 15.4408C11.4758 18.0455 16.7871 16.9927 16.7871 16.9927C16.7871 16.9927 17.0547 15.714 17.0547 14.2825Z" fill="#28B700"/>
  <path d="M16.4464 14.7724C16.4167 14.8413 16.4063 14.9193 16.4242 14.9935C16.4421 15.0677 16.4861 15.1315 16.5481 15.1721C16.6102 15.2126 16.6863 15.2272 16.7614 15.2139C16.8366 15.2005 16.9038 15.1597 16.955 15.1048C17.083 14.9706 17.2209 14.8377 17.3614 14.7104C18.6429 13.5736 20.0946 12.702 21.5966 11.9898C23.1046 11.2821 24.7 10.7542 26.4143 10.4089C26.6052 10.3706 26.7945 10.3345 26.9904 10.3006C27.0644 10.2878 27.1353 10.2538 27.1876 10.1981C27.2399 10.1425 27.2692 10.0708 27.2692 9.9967C27.2691 9.92261 27.2397 9.85089 27.1874 9.79535C27.135 9.73975 27.0641 9.70583 26.9901 9.6931C26.7857 9.65949 26.5854 9.63164 26.3809 9.60977C24.5455 9.4086 22.6148 9.71788 20.9082 10.5234C19.204 11.3278 17.7043 12.5886 16.7362 14.2114C16.6304 14.3928 16.5312 14.5812 16.4464 14.7724Z" fill="#8BF06F"/>
  <path d="M16.9203 14.7867C16.9539 14.8532 16.9699 14.9296 16.958 15.0044C16.9461 15.0792 16.908 15.1457 16.8503 15.1908C16.7925 15.2358 16.7187 15.2566 16.6433 15.2499C16.5679 15.2433 16.4977 15.2091 16.4414 15.1604C16.317 15.0558 16.184 14.9515 16.0531 14.8564C14.8469 13.9942 13.5086 13.3715 12.1655 12.7508C10.8165 12.137 9.43377 11.5525 8.00513 10.9462C7.84614 10.8789 7.68865 10.8118 7.52669 10.7436C7.45811 10.7146 7.39651 10.6667 7.35722 10.602C7.31792 10.5372 7.30395 10.4619 7.31886 10.3902C7.33376 10.3185 7.37662 10.2549 7.43846 10.2112C7.50032 10.1675 7.5759 10.1481 7.65036 10.1488C7.82976 10.1517 8.00518 10.157 8.18259 10.1663C9.77624 10.2489 11.3649 10.6062 12.8376 11.2768C14.2995 11.9496 15.6911 12.9257 16.6364 14.3091C16.7373 14.4609 16.8363 14.624 16.9203 14.7867Z" fill="#8BF06F"/>
</svg>