<svg xmlns="http://www.w3.org/2000/svg" width="36" height="36" viewBox="0 0 36 36" fill="none">
  <path d="M19.0352 2.05957C22.427 2.05969 25.3073 4.24009 26.3554 7.27557C26.5936 7.96523 27.1066 8.53722 27.7556 8.87041C29.9121 9.97736 31.3875 12.2228 31.3877 14.8135C31.3877 16.2389 30.9401 17.5592 30.1788 18.6434C29.8031 19.1784 29.6215 19.8337 29.6538 20.4867C29.6586 20.5855 29.6611 20.6851 29.6611 20.7852C29.661 24.143 26.9389 26.8652 23.5811 26.8652C22.5337 26.8652 21.5483 26.6001 20.6881 26.1335C19.6019 25.5442 18.109 25.5442 17.0228 26.1335C16.1629 26.6 15.178 26.8652 14.1309 26.8652C10.773 26.8652 8.04998 24.143 8.0498 20.7852C8.0498 20.7052 8.00882 20.6312 7.93972 20.5911C5.9497 19.435 4.61133 17.2807 4.61133 14.8135C4.61147 12.4464 5.84295 10.3665 7.70037 9.18059C8.28654 8.80634 8.71268 8.21584 8.98555 7.57615C9.60055 6.13444 11.0307 5.12404 12.6973 5.12402C12.8001 5.12402 12.898 5.07786 12.9619 4.99728C14.3808 3.20759 16.5739 2.05957 19.0352 2.05957Z" fill="#1F8F00"/>
  <path d="M17.8691 2.23267C20.9522 2.23272 23.5753 4.19266 24.565 6.93432C24.8128 7.62069 25.3259 8.19186 25.97 8.53492C27.9075 9.56693 29.2266 11.6069 29.2266 13.9553C29.2265 15.2355 28.8336 16.4234 28.1628 17.4067C27.7942 17.9469 27.613 18.602 27.6354 19.2556C27.6376 19.3187 27.6387 19.382 27.6387 19.4456C27.6385 22.532 25.1363 25.0343 22.0498 25.0344C21.1559 25.0344 20.3112 24.8243 19.5622 24.4509C18.4559 23.8994 16.9543 23.8993 15.848 24.4509C15.0993 24.8243 14.255 25.0344 13.3613 25.0344C10.2748 25.0343 7.77268 22.532 7.77246 19.4456C7.77246 19.371 7.73444 19.302 7.67002 19.2646C5.84138 18.2018 4.61143 16.2227 4.61133 13.9553C4.61133 11.8112 5.71045 9.92336 7.37615 8.82551C7.95687 8.44277 8.38213 7.85111 8.67079 7.21833C9.25485 5.93798 10.5456 5.04818 12.0449 5.0481C12.1392 5.0481 12.229 5.00603 12.2876 4.93218C13.5918 3.28768 15.6072 2.23267 17.8691 2.23267Z" fill="#28B700"/>
  <path d="M12.6274 11.1426C12.6761 11.0896 12.7159 11.0261 12.732 10.9552C12.7482 10.8844 12.7397 10.8127 12.7065 10.7524C12.6733 10.6921 12.6173 10.6466 12.5488 10.6223C12.4803 10.598 12.4054 10.5976 12.3345 10.6104C12.2431 10.6222 12.1521 10.6284 12.0618 10.6303C11.2531 10.6335 10.5523 10.3604 10.0804 10.0057C9.61095 9.65864 9.24717 9.09862 9.0251 8.2303C9.00029 8.13684 8.97681 8.04166 8.95539 7.93956C8.94098 7.86897 8.91279 7.79951 8.86479 7.74493C8.81684 7.69035 8.75379 7.65524 8.68549 7.6468C8.61719 7.63837 8.54749 7.65709 8.4877 7.69836C8.42787 7.73962 8.38363 7.80015 8.35248 7.8651C8.30539 7.9712 8.26355 8.07502 8.22666 8.18253C7.86893 9.12155 8.0653 10.5419 9.10375 11.2982C10.1028 12.0459 11.4423 12.0077 12.3465 11.3778C12.4475 11.3068 12.542 11.2282 12.6274 11.1426Z" fill="#1F8F00"/>
  <path d="M16.9603 24.1938L11.459 18.962L13.6707 18.3086L17.9855 22.083L19.4513 17.7556L22.5505 17.4468L20.3978 23.8922L21.4174 31.6817C21.5742 32.8791 20.642 33.9412 19.4344 33.9412H18.3105C17.1393 33.9412 16.2187 32.9393 16.3177 31.7722L16.9603 24.1938Z" fill="#9C5118"/>
  <circle cx="19.2767" cy="15.2293" r="3.66927" fill="#28B700"/>
  <circle cx="11.7572" cy="17.7193" r="3.66927" fill="#28B700"/>
  <path d="M25.2232 14.2218C25.2178 14.1471 25.1914 14.0732 25.1417 14.0155C25.092 13.9578 25.0239 13.9211 24.9505 13.9133C24.877 13.9055 24.8028 13.9271 24.7421 13.9731C24.6813 14.0191 24.64 14.0858 24.6191 14.1577C24.5672 14.3266 24.5044 14.492 24.4328 14.6532C23.7729 16.0862 22.5573 17.1736 21.238 17.608C19.917 18.0578 18.4047 17.7434 16.9551 16.9315C16.7956 16.8442 16.6378 16.753 16.474 16.6513C16.4103 16.6119 16.3349 16.59 16.259 16.5965C16.1831 16.603 16.1135 16.6366 16.0642 16.6916C16.0149 16.7465 15.9888 16.8193 15.9905 16.8954C15.9922 16.9716 16.022 17.0442 16.068 17.1033C16.196 17.2635 16.3235 17.4132 16.4592 17.5591C17.6352 18.8871 19.7575 19.8308 21.7396 19.1484C23.6828 18.5064 25.0083 16.7169 25.2088 14.8472C25.2299 14.6376 25.2352 14.428 25.2232 14.2218Z" fill="#1F8F00"/>
  <path d="M15.0743 20.0457C15.0949 19.9766 15.1027 19.9021 15.0861 19.8313C15.0695 19.7606 15.0304 19.6999 14.9741 19.6603C14.9178 19.6207 14.8475 19.6044 14.7753 19.6126C14.7031 19.6209 14.6356 19.6534 14.5775 19.6961C14.5006 19.7468 14.4215 19.7923 14.3413 19.8336C13.6161 20.1915 12.8665 20.2538 12.2867 20.1422C11.7126 20.0365 11.1399 19.693 10.5592 19.0103C10.4959 18.9372 10.433 18.862 10.369 18.7797C10.325 18.7226 10.2692 18.6725 10.2021 18.6446C10.1351 18.6166 10.063 18.6127 9.99794 18.6351C9.93287 18.6575 9.87847 18.7049 9.84287 18.7683C9.80722 18.8316 9.79404 18.9054 9.79456 18.9774C9.79884 19.0934 9.80681 19.2051 9.82087 19.3179C9.91167 20.3186 10.7116 21.5086 11.9766 21.7322C13.2025 21.9655 14.3893 21.3431 14.9252 20.3802C14.9848 20.2722 15.0351 20.16 15.0743 20.0457Z" fill="#1F8F00"/>
</svg>