<svg xmlns="http://www.w3.org/2000/svg" width="30" height="30" viewBox="0 0 30 30" fill="none">
  <path d="M1.99981 1.46197C2.97612 0.485659 4.55865 0.485659 5.53497 1.46197L15.2313 11.1583L24.4647 1.92584C25.4408 0.949789 27.0235 0.949959 27.9998 1.92584C28.9761 2.90215 28.9761 4.48566 27.9998 5.46197L18.7674 14.6934L28.6111 24.5372C29.5874 25.5135 29.5874 27.097 28.6111 28.0733C27.6349 29.0494 26.0523 29.0493 25.076 28.0733L15.2322 18.2295L4.92461 28.5381C3.94834 29.5144 2.3648 29.5143 1.38848 28.5381C0.412172 27.5618 0.412174 25.9783 1.38848 25.002L11.6961 14.6934L1.99981 4.99713C1.02355 4.02086 1.02365 2.43829 1.99981 1.46197Z" fill="white"/>
</svg>